<svg xmlns="http://www.w3.org/2000/svg" xmlns:xlink="http://www.w3.org/1999/xlink">
  <symbol id="basket">
    <path d="M4.33333 4L1 8.4V23.8C1 24.3835 1.23413 24.9431 1.65087 25.3556C2.06762 25.7682 2.63285 26 3.22222 26H18.7778C19.3671 26 19.9324 25.7682 20.3491 25.3556C20.7659 24.9431 21 24.3835 21 23.8V8.4L17.6667 4H4.33333Z" stroke-width="2" stroke-linecap="round" stroke-linejoin="round"/>
    <path d="M1 8.39996H21" stroke-width="2" stroke-linecap="round" stroke-linejoin="round"/>
    <path d="M15.4448 12.7999C15.4448 13.9669 14.9765 15.086 14.1431 15.9112C13.3096 16.7364 12.1791 17.1999 11.0004 17.1999C9.82161 17.1999 8.69115 16.7364 7.85766 15.9112C7.02416 15.086 6.55591 13.9669 6.55591 12.7999" stroke-width="2" stroke-linecap="round" stroke-linejoin="round"/>
  </symbol>
  <symbol id="favorites">
    <path d="M23.1494 2.94496C22.5629 2.32835 21.8667 1.83921 21.1003 1.50549C20.334 1.17177 19.5126 1 18.6831 1C17.8535 1 17.0321 1.17177 16.2658 1.50549C15.4994 1.83921 14.8032 2.32835 14.2167 2.94496L12.9997 4.22404L11.7826 2.94496C10.5981 1.70004 8.99152 1.00065 7.31633 1.00065C5.64114 1.00065 4.03455 1.70004 2.85001 2.94496C1.66547 4.18988 1 5.87836 1 7.63895C1 9.39954 1.66547 11.088 2.85001 12.3329L4.06705 13.612L12.9997 23L21.9323 13.612L23.1494 12.3329C23.7361 11.7166 24.2015 10.9849 24.519 10.1794C24.8366 9.37403 25 8.51076 25 7.63895C25 6.76714 24.8366 5.90387 24.519 5.09846C24.2015 4.29305 23.7361 3.56128 23.1494 2.94496V2.94496Z" stroke-width="2" stroke-linecap="round" stroke-linejoin="round"/>
  </symbol>
  <symbol id="profile">
    <path d="M23 26V23.2222C23 21.7488 22.4205 20.3357 21.3891 19.2939C20.3576 18.252 18.9587 17.6667 17.5 17.6667H6.5C5.04131 17.6667 3.64236 18.252 2.61091 19.2939C1.57946 20.3357 1 21.7488 1 23.2222V26" stroke-width="2" stroke-linecap="round" stroke-linejoin="round"/>
    <path d="M12 12.1111C15.0376 12.1111 17.5 9.6238 17.5 6.55556C17.5 3.48731 15.0376 1 12 1C8.96243 1 6.5 3.48731 6.5 6.55556C6.5 9.6238 8.96243 12.1111 12 12.1111Z"  stroke-width="2" stroke-linecap="round" stroke-linejoin="round"/>
  </symbol>
  <symbol id="search">
    <path d="M10.7778 20.5555C16.1779 20.5555 20.5555 16.1779 20.5555 10.7778C20.5555 5.37765 16.1779 1 10.7778 1C5.37765 1 1 5.37765 1 10.7778C1 16.1779 5.37765 20.5555 10.7778 20.5555Z" stroke-width="2" stroke-linecap="round" stroke-linejoin="round"/>
    <path d="M22.9998 22.9999L17.6831 17.6833"  stroke-width="2" stroke-linecap="round" stroke-linejoin="round"/>
  </symbol>
  <symbol id="minus">
    <line y1="1" x2="16" y2="1" stroke-width="2"/>
  </symbol>
  <symbol id="plus">
    <line y1="8" x2="16" y2="8" stroke-width="2"/>
    <line x1="8" y1="16" x2="8" stroke-width="2"/>
  </symbol>
</svg>
